<svg width="236" height="151" viewBox="0 0 236 151" fill="none" xmlns="http://www.w3.org/2000/svg">
<g clip-path="url(#clip0)">
<g clip-path="url(#clip1)">
<path d="M160.491 80.2552C157.843 76.8714 145.246 64.0972 150.681 50.2374C150.681 50.2374 137.819 60.2924 142.647 74.859C140.418 71.619 119.255 60.5663 121.017 19.7986C121.017 19.7986 119.681 21.1176 117.635 23.4326V128C129.304 127.674 138.091 124.16 138.091 124.16C138.091 124.16 172 107.124 160.491 80.2552Z" fill="#D2623E"/>
<path d="M95.8065 69.4629C95.8065 69.4629 99.1531 96.4486 110.307 100.771C110.307 100.771 88.0007 95.3714 83.538 68.3806C82.4253 71.6207 52 100.976 94.6076 123.617C102.469 127.234 110.58 128.201 117.635 128.004V23.4343C110.767 31.2098 95.8065 50.3321 95.8065 69.4629Z" fill="#EC6C51"/>
</g>
</g>
<path fill-rule="evenodd" clip-rule="evenodd" d="M0.0698242 75.5851C2.3407 79.4332 45.409 121.642 49.6375 123.281C56.8414 126.062 62.6362 121.49 63.6151 116.004C65.1031 107.852 50.8904 97.5664 41.8461 88.6901C37.8133 84.7281 32.0578 80.3093 29.787 75.547C34.5636 68.7664 48.0322 57.0708 54.7666 50.5566C58.0164 47.4328 64.7114 42.6709 64.4765 36.309C64.2416 29.8708 58.0945 25.2994 50.4989 27.3947C45.6439 28.7661 3.86767 70.0236 0.0698242 75.5851Z" fill="#F26651"/>
<path fill-rule="evenodd" clip-rule="evenodd" d="M206.096 75.5471C202.454 82.4427 188.673 93.6809 182.173 99.9665C178.689 103.319 171.602 107.814 172.111 114.785C172.62 121.528 179.158 126.252 186.519 123.281C189.534 122.062 232.837 79.4332 235.93 75.5089C232.289 69.376 190.708 28.8424 185.54 27.3567C178.023 25.1853 171.876 29.7948 171.484 36.3091C170.897 46.0996 194.389 60.7662 206.096 75.5471Z" fill="#F26651"/>
<defs>
<clipPath id="clip0">
<rect width="115" height="115" fill="white" transform="translate(60 12)"/>
</clipPath>
<clipPath id="clip1">
<rect width="128" height="128" fill="white" transform="translate(53 15)"/>
</clipPath>
</defs>
</svg>
