<!-- icon666.com - MILLIONS vector ICONS FREE --><svg id="Capa_1" enable-background="new 0 0 508.915 508.915" viewBox="0 0 508.915 508.915" xmlns="http://www.w3.org/2000/svg"><g id="XMLID_246_"><path id="XMLID_548_" d="m440.346 367.127-50.3-39.338c-26.052-20.375-61.424-25.711-92.308-13.92-36.313 13.863-45.292 12.455-45.654 12.387l-77.318-14.596c-23.739-4.5-46.565 9.424-53.679 32.056l-17.334-13.965c-13.246-10.672-29.302-15.544-45.204-13.713-16.663 1.916-32.057 10.919-43.344 25.353l-15.205 19.444 168.986 147.729 339.929.119v-141.798zm-399.102-10.084c5.919-6.392 13.17-10.332 20.732-11.201 7.977-.914 15.915 1.597 22.957 7.271 0 0 52.609 42.384 52.625 42.364 6.031 4.563 13.134 7.67 20.7 8.932l94.021 18.866 5.902-29.414-94.284-18.918s-.59-.106-.59-.106c-9.496-1.704-16.192-10.968-13.99-20.676 2.047-9.025 10.779-14.743 19.875-13.021l77.327 14.598c7.994 1.508 22.259 1.3 61.918-13.839 21.117-8.061 45.308-4.412 63.127 9.524l48.636 38.036v89.195l-239.946-.084zm437.671 121.629-28.715-.01v-81.57l28.715-.102z" fill="#000000" style="fill: rgb(27, 107, 106);"></path><path id="XMLID_555_" d="m169.371 194.224 86.993 89.993 86.994-89.993c20.374-21.077 25.635-51.91 13.402-78.551-9.122-19.863-26.548-34.161-47.811-39.227-18.164-4.328-36.861-1.38-52.586 8.058-15.722-9.437-34.423-12.384-52.585-8.058-21.263 5.066-38.689 19.364-47.81 39.228-12.232 26.641-6.971 57.473 13.403 78.55zm13.861-66.031c5.247-11.425 15.27-19.649 27.5-22.563 3.159-.752 6.345-1.122 9.505-1.122 9.073 0 17.919 3.052 25.211 8.859l10.916 8.699 10.914-8.696c9.835-7.833 22.489-10.653 34.72-7.74 12.23 2.914 22.254 11.138 27.5 22.563 7.036 15.324 4.011 33.058-7.709 45.181l-65.424 67.68-65.424-67.68c-11.719-12.123-14.745-29.858-7.709-45.181z" fill="#000000" style="fill: rgb(27, 107, 106);"></path><path id="XMLID_556_" d="m241.364.232h30v41.771h-30z" fill="#000000" style="fill: rgb(27, 107, 106);"></path><path id="XMLID_557_" d="m396.135 136.482h41.771v30h-41.771z" fill="#000000" style="fill: rgb(27, 107, 106);"></path><path id="XMLID_558_" d="m74.824 136.482h41.771v30h-41.771z" fill="#000000" style="fill: rgb(27, 107, 106);"></path><path id="XMLID_559_" d="m124.174 31.178h30v41.77h-30z" transform="matrix(.755 -.656 .656 .755 -.005 104.114)" fill="#000000" style="fill: rgb(27, 107, 106);"></path><path id="XMLID_560_" d="m355.041 37.063h41.77v30h-41.77z" transform="matrix(.656 -.755 .755 .656 89.943 301.552)" fill="#000000" style="fill: rgb(27, 107, 106);"></path><path id="XMLID_563_" d="m118.288 228.397h41.77v30h-41.77z" transform="matrix(.656 -.755 .755 .656 -135.812 188.677)" fill="#000000" style="fill: rgb(27, 107, 106);"></path><path id="XMLID_574_" d="m360.926 222.511h30v41.77h-30z" transform="matrix(.755 -.656 .656 .755 -67.455 306.45)" fill="#000000" style="fill: rgb(27, 107, 106);"></path></g></svg>