<?xml version="1.0" ?><!DOCTYPE svg  PUBLIC '-//W3C//DTD SVG 1.1//EN'  'http://www.w3.org/Graphics/SVG/1.1/DTD/svg11.dtd'><svg height="100%" style="fill-rule:evenodd;clip-rule:evenodd;stroke-linejoin:round;stroke-miterlimit:2;" version="1.1" viewBox="0 0 64 64" width="100%" xml:space="preserve" xmlns="http://www.w3.org/2000/svg" xmlns:serif="http://www.serif.com/" xmlns:xlink="http://www.w3.org/1999/xlink"><g id="ICON"><path fill="#1b6b6a" d="M35.596,48.159l-2.631,9.822c-0.114,0.424 0.063,0.873 0.435,1.106c0.372,0.233 0.853,0.196 1.185,-0.091l3.731,-3.231c0,0 1.616,4.663 1.616,4.663c0.143,0.411 0.535,0.683 0.97,0.673c0.434,-0.011 0.813,-0.301 0.935,-0.719l1.673,-5.708l1.652,5.705c0.121,0.418 0.499,0.71 0.935,0.721c0.435,0.012 0.828,-0.26 0.971,-0.672l1.616,-4.663c-0,0 3.731,3.231 3.731,3.231c0.332,0.287 0.813,0.324 1.185,0.091c0.372,-0.233 0.549,-0.682 0.435,-1.106l-2.631,-9.822c1.919,-1.981 3.101,-4.68 3.101,-7.654c-0,-6.074 -4.931,-11.005 -11.005,-11.005c-6.074,-0 -11.005,4.931 -11.005,11.005c0,2.974 1.182,5.673 3.101,7.654Zm1.689,1.426l-1.545,5.765l2.383,-2.063c0.251,-0.217 0.593,-0.296 0.914,-0.21c0.32,0.086 0.577,0.325 0.686,0.639c-0,-0 1.075,3.101 1.075,3.101l1.572,-5.365c-1.874,-0.191 -3.609,-0.854 -5.085,-1.867Zm12.43,0c-1.468,1.008 -3.194,1.669 -5.056,1.864l1.549,5.352l1.069,-3.085c0.109,-0.314 0.366,-0.553 0.686,-0.639c0.321,-0.086 0.663,-0.007 0.914,0.21c-0,0 2.383,2.063 2.383,2.063l-1.545,-5.765Zm-46.715,-15.585l0,15c-0,0.796 0.316,1.559 0.879,2.121c0.562,0.563 1.325,0.879 2.121,0.879c6.483,-0 26.5,-0 26.5,-0c0.552,0 1,-0.448 1,-1c0,-0.552 -0.448,-1 -1,-1c0,-0 -20.017,-0 -26.5,-0c-0.265,0 -0.52,-0.105 -0.707,-0.293c-0.188,-0.187 -0.293,-0.442 -0.293,-0.707l0,-15c0,-0.552 -0.448,-1 -1,-1c-0.552,-0 -1,0.448 -1,1Zm0,-28l0,24c0,0.552 0.448,1 1,1c0.552,-0 1,-0.448 1,-1l0,-18l30,-0c0.552,-0 1,-0.448 1,-1c-0,-0.552 -0.448,-1 -1,-1l-30,-0c0,0 -0,-4 -0,-4c0,-0.552 0.448,-1 1,-1c0,0 51.5,0 51.5,0c0.552,0 1,0.448 1,1c0,0 0,4 0,4c0,-0 -19.5,-0 -19.5,-0c-0.552,-0 -1,0.448 -1,1c-0,0.552 0.448,1 1,1l19.5,-0l-0,37c-0,0.552 -0.448,1 -1,1l-2.5,-0c-0.552,0 -1,0.448 -1,1c0,0.552 0.448,1 1,1l2.5,-0c1.657,0 3,-1.343 3,-3l0,-43c-0,-1.657 -1.343,-3 -3,-3l-51.5,0c-1.657,0 -3,1.343 -3,3Zm40.5,25.5c4.97,0 9.005,4.035 9.005,9.005c-0,4.97 -4.035,9.005 -9.005,9.005c-4.97,-0 -9.005,-4.035 -9.005,-9.005c0,-4.97 4.035,-9.005 9.005,-9.005Zm-14.5,13.5l-0,-2c-0,-1.657 -1.343,-3 -3,-3l-14,-0c-1.657,-0 -3,1.343 -3,3l0,2c0,1.657 1.343,3 3,3l14,0c1.657,0 3,-1.343 3,-3Zm15.374,-12.127c-0.176,-0.317 -0.511,-0.514 -0.874,-0.514c-0.363,0 -0.698,0.197 -0.874,0.514l-1.979,3.559c-0,0 -3.997,0.783 -3.997,0.783c-0.356,0.07 -0.646,0.327 -0.758,0.672c-0.113,0.346 -0.029,0.724 0.218,0.99l2.774,2.982c-0,0 -0.491,4.043 -0.491,4.043c-0.044,0.36 0.111,0.716 0.405,0.93c0.293,0.213 0.68,0.25 1.009,0.097l3.693,-1.716c0,0 3.693,1.716 3.693,1.716c0.329,0.153 0.716,0.116 1.009,-0.097c0.294,-0.214 0.449,-0.57 0.405,-0.93l-0.491,-4.043c0,0 2.774,-2.982 2.774,-2.982c0.247,-0.266 0.331,-0.644 0.218,-0.99c-0.112,-0.345 -0.402,-0.602 -0.758,-0.672l-3.997,-0.783c0,0 -1.979,-3.559 -1.979,-3.559Zm-17.374,10.127l-0,2c-0,0.552 -0.448,1 -1,1l-14,0c-0.552,0 -1,-0.448 -1,-1c-0,-0 0,-2 0,-2c0,-0.552 0.448,-1 1,-1l14,-0c0.552,-0 1,0.448 1,1Zm16.5,-7.583l1.331,2.394c0.143,0.257 0.393,0.438 0.682,0.495l2.688,0.526c-0,0 -1.866,2.006 -1.866,2.006c-0.2,0.215 -0.295,0.509 -0.26,0.801l0.33,2.719c0,-0 -2.484,-1.154 -2.484,-1.154c-0.267,-0.124 -0.575,-0.124 -0.842,-0l-2.484,1.154c-0,-0 0.33,-2.719 0.33,-2.719c0.035,-0.292 -0.06,-0.586 -0.26,-0.801l-1.866,-2.006c0,0 2.688,-0.526 2.688,-0.526c0.289,-0.057 0.539,-0.238 0.682,-0.495l1.331,-2.394Zm-33.5,1.583l18.5,-0c0.552,0 1,-0.448 1,-1c0,-0.552 -0.448,-1 -1,-1l-18.5,-0c-0.552,0 -1,0.448 -1,1c0,0.552 0.448,1 1,1Zm0,-4l21,0c0.552,0 1,-0.448 1,-1c0,-0.552 -0.448,-1 -1,-1l-21,0c-0.552,0 -1,0.448 -1,1c0,0.552 0.448,1 1,1Zm0,-4l23,0c0.552,0 1,-0.448 1,-1c0,-0.552 -0.448,-1 -1,-1l-23,0c-0.552,0 -1,0.448 -1,1c0,0.552 0.448,1 1,1Zm0,-4l43,0c0.552,0 1,-0.448 1,-1c0,-0.552 -0.448,-1 -1,-1l-43,0c-0.552,0 -1,0.448 -1,1c0,0.552 0.448,1 1,1Zm0,-4l43,0c0.552,0 1,-0.448 1,-1c0,-0.552 -0.448,-1 -1,-1l-43,-0c-0.552,0 -1,0.448 -1,1c0,0.552 0.448,1 1,1Zm9,-4l25.5,0c0.552,-0 1,-0.448 1,-1c-0,-0.552 -0.448,-1 -1,-1l-25.5,0c-0.552,-0 -1,0.448 -1,1c-0,0.552 0.448,1 1,1Zm-11,-10.5c0.552,-0 1,0.448 1,1c0,0.552 -0.448,1 -1,1c-0.552,-0 -1,-0.448 -1,-1c0,-0.552 0.448,-1 1,-1Zm4,-0c0.552,-0 1,0.448 1,1c0,0.552 -0.448,1 -1,1c-0.552,-0 -1,-0.448 -1,-1c0,-0.552 0.448,-1 1,-1Zm4,-0c0.552,-0 1,0.448 1,1c0,0.552 -0.448,1 -1,1c-0.552,-0 -1,-0.448 -1,-1c0,-0.552 0.448,-1 1,-1Z"/></g></svg>